#!OML:ASF X:\für Bonn\!DataBase\2005_08_11_Bastian_Final\c3d\Bastian.ASF
:FULLY-SPECIFIED
:DEGREES
35
root 2.52627 14.5863 -40.572 554.17 -188.342 -180.567
lowerback 23.7686 -2.07948 2.68123
upperback 0.0162214 -2.1042 -0.875195
thorax -13.5066 -1.173 -1.80437
lowerneck 6.00477 -4.92726 -4.69946
upperneck -26.5811 -4.39947 13.6729
head -8.73992 -3.06226 5.9325
rclavicle -5.96354e-015 5.56597e-015
rhumerus -28.4453 19.7882 -90.2994
rradius 71.8151
rwrist 2.367
rhand -24.6576 19.8569
rfingers 7.12502
rthumb 1.84227 -10.1149
lclavicle -5.96354e-015 5.56597e-015
lhumerus -17.0698 -7.3821 81.8213
lradius 67.6683
lwrist -151.527
lhand -24.3362 22.0946
lfingers 7.12502
lthumb 2.15266 52.0635
rfemur -41.2462 -9.18607 21.7956
rtibia 83.4321
rfoot -42.6862 -1.01208
rtoes -9.86606
lfemur -38.2364 -1.06014 -16.9824
ltibia 81.4294
lfoot -41.3034 -14.7441
ltoes -8.29342
36
root 2.52259 14.7315 -40.3416 553.985 -188.243 -180.731
lowerback 23.0678 -1.9961 2.5144
upperback 0.118513 -2.05073 -0.807312
thorax -12.9798 -1.13067 -1.66511
lowerneck 4.15747 -4.96697 -4.05894
upperneck -25.6475 -4.50603 13.1985
head -8.10285 -3.06681 5.52643
rclavicle 3.63776e-014 -8.34896e-015
rhumerus -27.6749 21.5782 -89.417
rradius 75.5208
rwrist 2.08948
rhand -24.3723 20.1716
rfingers 7.12502
rthumb 2.11782 -9.79765
lclavicle 3.63776e-014 -8.34896e-015
lhumerus -15.3762 -8.69818 81.6465
lradius 70.9122
lwrist -152.262
lhand -24.6594 22.0752
lfingers 7.12502
lthumb 1.84051 52.047
rfemur -39.1601 -8.84839 21.8666
rtibia 81.3949
rfoot -42.0856 -0.855932
rtoes -10.7702
lfemur -36.2333 -1.05726 -16.6829
ltibia 79.5053
lfoot -40.4441 -14.5288
ltoes -9.68617
37
root 2.52165 14.8905 -40.0915 553.75 -188.139 -180.902
lowerback 22.1943 -1.93804 2.42683
upperback 0.23928 -2.01506 -0.760509
thorax -12.3415 -1.1026 -1.59303
lowerneck 2.47524 -4.99373 -3.62235
upperneck -24.7097 -4.61509 12.845
head -7.49787 -3.0671 5.21678
rclavicle -1.64991e-014 5.96354e-015
rhumerus -26.9235 23.2013 -88.336
rradius 79.135
rwrist 2.38866
rhand -23.6634 19.7512
rfingers 7.12502
rthumb 2.80246 -10.2101
lclavicle -1.64991e-014 5.96354e-015
lhumerus -13.7534 -9.9029 81.292
lradius 74.181
lwrist -153.358
lhand -25.2102 22.3471
lfingers 7.12502
lthumb 1.30853 52.3228
rfemur -36.7918 -8.48832 21.9175
rtibia 79.0575
rfoot -41.2373 -0.697809
rtoes -11.8857
lfemur -33.9991 -1.07713 -16.3685
ltibia 77.2857
lfoot -39.3819 -14.3731
ltoes -10.8609
38
root 2.5204 15.0644 -39.8254 553.544 -187.932 -181.03
lowerback 21.0696 -1.86525 2.30885
upperback 0.377814 -1.97994 -0.775696
thorax -11.5455 -1.07505 -1.57801
lowerneck 0.883877 -5.00614 -3.2159
upperneck -23.6465 -4.72125 12.5338
head -6.87919 -3.06522 4.93389
rclavicle -2.78299e-015 -1.59028e-014
rhumerus -26.1813 24.6906 -87.1676
rradius 82.3984
rwrist 2.98387
rhand -23.1429 19.6503
rfingers 7.12502
rthumb 3.30507 -10.3038
lclavicle -2.78299e-015 -1.59028e-014
lhumerus -12.0189 -10.9747 80.6653
lradius 77.3584
lwrist -154.325
lhand -26.0903 22.9034
lfingers 7.12502
lthumb 0.458483 52.8826
rfemur -34.267 -8.03279 21.9075
rtibia 76.4628
rfoot -40.1818 -0.502284
rtoes -13.2326
lfemur -31.6352 -1.06349 -16.1286
ltibia 74.7936
lfoot -37.8423 -14.1969
ltoes -12.1081
39
root 2.51991 15.2497 -39.5458 553.315 -187.644 -181.106
lowerback 19.7956 -1.78349 2.18208
upperback 0.499346 -1.94449 -0.876817
thorax -10.691 -1.05004 -1.65474
lowerneck -0.384379 -4.99515 -2.78276
upperneck -22.6712 -4.79414 12.2463
head -6.36096 -3.05921 4.67809
rclavicle 1.61016e-014 5.96354e-015
rhumerus -25.4982 26.0441 -85.9943
rradius 85.2994
rwrist 3.79788
rhand -22.7649 19.8632
rfingers 7.12502
rthumb 3.67009 -10.0849
lclavicle 1.61016e-014 5.96354e-015
lhumerus -10.3743 -11.8692 79.806
lradius 80.5833
lwrist -154.896
lhand -27.2166 23.3233
lfingers 7.12502
lthumb -0.629318 53.3021
rfemur -31.5842 -7.49336 21.8251
rtibia 73.6629
rfoot -38.9197 -0.348821
rtoes -14.4508
lfemur -29.1175 -1.00341 -15.9537
ltibia 72.0616
lfoot -35.8155 -14.0936
ltoes -13.0965
40
root 2.5204 15.4476 -39.249 553.149 -187.248 -181.16
lowerback 18.25 -1.67149 2.04335
upperback 0.581685 -1.87538 -1.01578
thorax -9.72955 -1.00945 -1.77706
lowerneck -1.35816 -4.942 -2.32925
upperneck -21.7442 -4.82439 11.8955
head -5.92363 -3.03615 4.41627
rclavicle -1.86858e-014 -9.14409e-015
rhumerus -24.8548 27.2329 -84.8432
rradius 87.9797
rwrist 4.33324
rhand -22.2452 20.1591
rfingers 7.12502
rthumb 4.17201 -9.77981
lclavicle -1.86858e-014 -9.14409e-015
lhumerus -8.92021 -12.5568 78.8326
lradius 83.5921
lwrist -154.926
lhand -28.4548 23.7895
lfingers 7.12502
lthumb -1.82514 53.7614
rfemur -28.9004 -6.83122 21.7098
rtibia 70.7099
rfoot -37.3892 -0.143932
rtoes -15.4195
lfemur -26.5382 -0.936027 -15.8287
ltibia 69.1126
lfoot -33.5368 -13.7851
ltoes -14.3865
41
root 2.52129 15.6541 -38.9395 552.992 -186.814 -181.17
lowerback 16.5096 -1.56201 1.86757
upperback 0.659389 -1.8138 -1.17922
thorax -8.66574 -0.970225 -1.90139
lowerneck -2.14623 -4.82911 -1.96169
upperneck -20.7255 -4.77447 11.627
head -5.494 -2.97425 4.20163
rclavicle 1.64991e-014 5.56597e-015
rhumerus -24.3124 28.426 -83.7417
rradius 90.3317
rwrist 4.36041
rhand -21.7255 20.5719
rfingers 7.12502
rthumb 4.67384 -9.35653
lclavicle 1.64991e-014 5.56597e-015
lhumerus -7.73326 -12.9974 77.8206
lradius 86.5232
lwrist -154.66
lhand -29.4322 24.0568
lfingers 7.12502
lthumb -2.76911 54.0186
rfemur -26.1954 -6.11313 21.543
rtibia 67.6404
rfoot -35.5324 0.189712
rtoes -15.8708
lfemur -23.8783 -0.904447 -15.7499
ltibia 66.0087
lfoot -30.9931 -13.4336
ltoes -15.6816
